<svg id="Layer_1" data-name="Layer 1" xmlns="http://www.w3.org/2000/svg" viewBox="0 0 120.31 138.95"><defs><style>.cls-1,.cls-2{fill:#fff;}.cls-1{fill-rule:evenodd;}</style></defs><title>banner-logo</title><path class="cls-1" d="M630.3,297.34l-1.91-4.4h3.49v4.4a0.81,0.81,0,0,1-.12.55,0.82,0.82,0,0,1-.5.11,1.22,1.22,0,0,1-.6-0.12,1.19,1.19,0,0,1-.36-0.54h0Zm68.9,2.86,0.91,1v0.48h0.24v-0.48l0.91-1h-0.33l-0.7.74-0.7-.74H699.2Zm-2.44,1.5a1.19,1.19,0,0,0,.66-0.18v-0.31a0.88,0.88,0,0,1-.66.25c-1,0-1-1.08,0-1.08a0.87,0.87,0,0,1,.66.25v-0.31a1.19,1.19,0,0,0-.66-0.18c-1.31,0-1.31,1.56,0,1.56h0Zm-2.76-.06v-1.45h-0.24v1l-1.47-1v1.45h0.24v-1l1.47,1h0Zm-4.94-1.45v1.45h1.45v-0.24h-1.2v-0.36h1v-0.24h-1v-0.36h1.2v-0.24h-1.45Zm-2.56,1.26c-1,0-1-1.08,0-1.08a0.86,0.86,0,0,1,.66.25v-0.31a1.2,1.2,0,0,0-.66-0.18c-1.31,0-1.31,1.56,0,1.56a1.13,1.13,0,0,0,.78-0.27v-0.51H686.6v0.24H687v0.15a1,1,0,0,1-.54.14h0ZM683,300.21l-1,1.45h0.3l0.17-.24h1.1l0.17,0.24H684l-1-1.45h0Zm0.38,1h-0.76l0.38-.54,0.38,0.54h0Zm-11.89-.72v1.2h0.24v-1.2h0.73v-0.24h-1.69v0.24h0.73Zm-4,1.2h0.24v-0.48h0.72l0.31,0.48h0.29l-0.33-.51a0.48,0.48,0,0,0-.14-0.94h-1.1v1.45h0Zm0.24-.73v-0.48h0.86a0.24,0.24,0,0,1,0,.48H667.8Zm-3-.72-1,1.45H664l0.17-.24h1.1l0.17,0.24h0.3l-1-1.45h0Zm0.38,1h-0.76l0.38-.54,0.38,0.54h0Zm-9.78-1v1.45h1.45v-0.24H655.6v-1.21h-0.24Zm-2.79,0-1,1.45h0.3l0.17-.24h1.1l0.17,0.24h0.3l-1-1.45h0Zm0.38,1h-0.76l0.38-.54,0.38,0.54h0Zm-3.56-.72v1.2h0.24v-1.2h0.73v-0.24h-1.69v0.24h0.73Zm-2.75-.24v1.45h0.24v-1.45h-0.24Zm-2.56,1.26c-1,0-1-1.08,0-1.08a0.86,0.86,0,0,1,.66.25v-0.31a1.2,1.2,0,0,0-.66-0.18c-1.31,0-1.31,1.56,0,1.56a1.13,1.13,0,0,0,.78-0.27v-0.51h-0.69v0.24h0.44v0.15a1,1,0,0,1-.54.14h0Zm-3-1.26v1.45h0.24v-1.45h-0.24Zm-3.51,1.45h0.75c1.3,0,1.32-1.45,0-1.45h-0.76v1.45h0Zm0.24-1.2h0.51c1,0,1,1,0,1H637.8v-1h0ZM660,298a0.5,0.5,0,0,0,.66-0.66v-5.17l-4.71-8.68a1.45,1.45,0,0,0-.43-0.53,1.24,1.24,0,0,0-.65-0.13h-0.68v3.62H654.1V285.9a3.44,3.44,0,0,0-.69-2.18,2.44,2.44,0,0,0-2-.89h-1.8a0.87,0.87,0,0,0-.54.11,0.8,0.8,0,0,0-.12.55v13.85a0.8,0.8,0,0,0,.12.55,0.87,0.87,0,0,0,.54.11H660Zm-14.27.09h18.1V298h-0.77a0.5,0.5,0,0,1-.66-0.66v-5.68l4.43-8.17a1.22,1.22,0,0,1,.45-0.51,1.59,1.59,0,0,1,.75-0.14h2.78a7.48,7.48,0,0,0-3.24,2,8.16,8.16,0,0,0,0,11.25,7.53,7.53,0,0,0,5.5,2.27,2.19,2.19,0,0,1,1.35.47,5.63,5.63,0,0,1,1.13,1.15l1,1.36a5.08,5.08,0,0,0,1.28,1.15,3,3,0,0,0,1.64.47,4,4,0,0,0,1.6-.37v-0.09a1.43,1.43,0,0,1-.44.09,1.6,1.6,0,0,1-1-.38,7.22,7.22,0,0,1-1-.94q-0.48-.56-1.07-1.15A5.94,5.94,0,0,0,676,299a7.86,7.86,0,0,0-2.39-.68,7.38,7.38,0,0,0,5.15-2.4,7.73,7.73,0,0,0,2.08-5.6h1v2.54a5.11,5.11,0,0,0,1.58,4.19,7.35,7.35,0,0,0,4.73,1.29A6.57,6.57,0,0,0,690,298a5.43,5.43,0,0,0,1.67-.84,3.87,3.87,0,0,0,1.22-1.59,5.85,5.85,0,0,0,.45-2.38v-2.94H695v7.06a0.81,0.81,0,0,1-.12.55,0.87,0.87,0,0,1-.54.11h-0.77v0.09h11.77v-3.7h-0.09v0.55a3.47,3.47,0,0,1-.69,2.16,2.41,2.41,0,0,1-2,.91h-5.11a0.87,0.87,0,0,1-.54-0.11,0.81,0.81,0,0,1-.12-0.55v-7.06H700a2.66,2.66,0,0,1,1.91.59,2,2,0,0,1,.61,1.53V293h0.09v-5.57h-0.09v0.59a2.06,2.06,0,0,1-.61,1.56,2.66,2.66,0,0,1-1.91.59h-3.24v-6.71a0.81,0.81,0,0,1,.12-0.55,0.87,0.87,0,0,1,.54-0.11H702a2.44,2.44,0,0,1,2,.89,3.44,3.44,0,0,1,.69,2.18v0.55h0.09v-3.7H691.73v0.09h0.88a0.87,0.87,0,0,1,.54.11,0.8,0.8,0,0,1,.12.55v6.71h-9.73v-6.71a0.8,0.8,0,0,1,.12-0.55,0.87,0.87,0,0,1,.54-0.11H685v-0.09h-4.6v0.09h0.77a0.87,0.87,0,0,1,.54.11,0.8,0.8,0,0,1,.12.55v6.71h-1a7.62,7.62,0,0,0-2.24-5.41,7.45,7.45,0,0,0-5.49-2.26,8.24,8.24,0,0,0-1.93.22H641.87V286a3.74,3.74,0,0,0-1.16-2.07,5.58,5.58,0,0,0-3.88-1.15h-6.38v0.09h0.77a0.87,0.87,0,0,1,.54.11,0.8,0.8,0,0,1,.12.55V291h-4.33l-3.62-8.35h-0.09L618,297.34a1.71,1.71,0,0,1-.33.55,1,1,0,0,1-.57.11h-0.83v0.09h3.66V298h-1.49q-0.6,0-.33-0.7l1.73-4.36h6.63l1.91,4.4c0.19,0.44.08,0.66-.33,0.66h-1.2v0.09h8.22V298h-0.77a0.87,0.87,0,0,1-.54-0.11,0.81,0.81,0,0,1-.12-0.55v-6.27h2.85a2.57,2.57,0,0,1,2,.71c1.21,1.27,1.09,3.86,2.35,5.41a2.61,2.61,0,0,0,2.15.89h1.37V298h-0.49c-1.64,0-2.06-2.41-2.38-3.62a4.33,4.33,0,0,0-1.34-2.36,4.66,4.66,0,0,0-2.67-1,5.26,5.26,0,0,0,3.41-1.29,3.84,3.84,0,0,0,1.13-2.85v-1.13a3.4,3.4,0,0,1,.69-2.06,2.44,2.44,0,0,1,2-.89h1.8a0.87,0.87,0,0,1,.54.11,0.8,0.8,0,0,1,.12.55v13.85a0.8,0.8,0,0,1-.12.55,0.87,0.87,0,0,1-.54.11h-0.77v0.09h0Zm12.63-15.25h8a0.47,0.47,0,0,1,.43.16,0.82,0.82,0,0,1-.1.56l-4.36,8.05L658,283.48a0.62,0.62,0,0,1-.16-0.48,0.49,0.49,0,0,1,.49-0.16h0Zm8.73,7.36a8.85,8.85,0,0,1,1.7-5.35,5.21,5.21,0,0,1,8.55,0,8.82,8.82,0,0,1,1.7,5.36H667.08Zm26.27,0v-6.71a0.8,0.8,0,0,1,.12-0.55,0.84,0.84,0,0,1,.51-0.11h0.4a0.83,0.83,0,0,1,.51.11,0.8,0.8,0,0,1,.12.55v6.71h-1.67Zm-0.09.09v2.94a5.83,5.83,0,0,1-.44,2.36,3.77,3.77,0,0,1-1.19,1.56A5.25,5.25,0,0,1,690,298a6.62,6.62,0,0,1-1.9.26q-4.56,0-4.56-5v-2.94h9.73Zm-14.24,0a9,9,0,0,1-1.7,5.71,5.21,5.21,0,0,1-8.55,0,9,9,0,0,1-1.7-5.7H679Zm-47.14.79v1.77h-3.53l-0.77-1.77h4.3Zm4.73-.09h-3v-8.15h3q3.57,0,3.57,4.08T636.61,291h0Zm-13.62-6,3.43,7.91h-6.56Z" transform="translate(-587.63 -207.55)"/><rect class="cls-2" y="90.45" width="28.63" height="0.09"/><path class="cls-1" d="M598.61,346.5l19.18-48.41h-0.1q-9.63,24.06-19.1,48.19" transform="translate(-587.63 -207.55)"/><path class="cls-1" d="M707.88,207.56l-40.72,75.19h0.07l40.7-75.2h-0.06Z" transform="translate(-587.63 -207.55)"/></svg>