<svg id="Layer_1" data-name="Layer 1" xmlns="http://www.w3.org/2000/svg" viewBox="0 0 120.3 138.95"><defs><style>.cls-1{fill:#fff;}.cls-2{fill:none;}</style></defs><title>banner-logo</title><rect class="cls-1" y="90.45" width="28.63" height="0.09"/><path class="cls-1" d="M141,138.95l19.18-48.41h-0.1q-9.63,24.06-19.1,48.19" transform="translate(-130 0)"/><path class="cls-2" d="M208.73,75.29h-8a0.49,0.49,0,0,0-.49.16,0.62,0.62,0,0,0,.16.48l4.33,8.13,4.36-8a0.82,0.82,0,0,0,.1-0.56A0.47,0.47,0,0,0,208.73,75.29Z" transform="translate(-130 0)"/><polygon class="cls-2" points="39.96 83.53 40.73 85.3 44.26 85.3 44.26 83.53 44.26 83.53 39.96 83.53"/><path class="cls-2" d="M172.67,89.79h0a1.19,1.19,0,0,0,.36.54,1.22,1.22,0,0,0,.6.12,0.82,0.82,0,0,0,.5-0.11,0.81,0.81,0,0,0,.12-0.55v-4.4h-3.49Z" transform="translate(-130 0)"/><polygon class="cls-2" points="32.24 85.35 38.8 85.35 35.37 77.44 32.24 85.35"/><path class="cls-2" d="M235.2,88a5.83,5.83,0,0,0,.44-2.36V82.77h-9.73v2.94q0,5,4.56,5a6.62,6.62,0,0,0,1.9-.26A5.25,5.25,0,0,0,234,89.6,3.77,3.77,0,0,0,235.2,88Z" transform="translate(-130 0)"/><path class="cls-2" d="M179,75.29h-3v8.15h3q3.58,0,3.58-4.08T179,75.29Z" transform="translate(-130 0)"/><path class="cls-2" d="M236.76,75.28h-0.4a0.84,0.84,0,0,0-.51.11,0.8,0.8,0,0,0-.12.55v6.71h1.66V75.94a0.8,0.8,0,0,0-.12-0.55A0.83,0.83,0,0,0,236.76,75.28Z" transform="translate(-130 0)"/><path class="cls-2" d="M218.41,76a5.21,5.21,0,0,0-7.25,1.3,8.85,8.85,0,0,0-1.7,5.35h12a8.82,8.82,0,0,0-1.7-5.36A5.21,5.21,0,0,0,218.41,76Z" transform="translate(-130 0)"/><path class="cls-2" d="M221.37,82.75H209.45a9,9,0,0,0,1.7,5.7,5.21,5.21,0,0,0,8.55,0,9,9,0,0,0,1.7-5.71h0Z" transform="translate(-130 0)"/><path class="cls-1" d="M247.62,87.36a3.47,3.47,0,0,1-.69,2.16,2.41,2.41,0,0,1-2,.91h-5.11a0.87,0.87,0,0,1-.54-0.11,0.81,0.81,0,0,1-.12-0.55V82.71h3.21a2.66,2.66,0,0,1,1.91.59,2,2,0,0,1,.61,1.53v0.62H245V79.88h-0.09v0.59a2.06,2.06,0,0,1-.61,1.56,2.66,2.66,0,0,1-1.91.59h-3.24V75.91a0.81,0.81,0,0,1,.12-0.55,0.87,0.87,0,0,1,.54-0.11h4.58a2.44,2.44,0,0,1,2,.89,3.44,3.44,0,0,1,.69,2.18v0.55h0.09v-3.7H234.1v0.09H235a0.87,0.87,0,0,1,.54.11,0.8,0.8,0,0,1,.12.55v6.71h-9.73V75.92a0.8,0.8,0,0,1,.12-0.55,0.87,0.87,0,0,1,.54-0.11h0.8V75.17h-4.6v0.09h0.77a0.87,0.87,0,0,1,.54.11,0.8,0.8,0,0,1,.12.55v6.71h-1A7.62,7.62,0,0,0,221,77.22,7.45,7.45,0,0,0,215.47,75a8.24,8.24,0,0,0-1.93.22h-3.93v0h-0.07v0h-25.3v3.27a3.74,3.74,0,0,0-1.16-2.07,5.58,5.58,0,0,0-3.88-1.15h-6.38v0.09h0.77a0.87,0.87,0,0,1,.54.11,0.8,0.8,0,0,1,.12.55v7.47h-4.33L166.3,75.1h-0.09l-5.84,14.69a1.71,1.71,0,0,1-.33.55,1,1,0,0,1-.57.11h-0.83v0.09h3.66V90.45h-1.49q-0.6,0-.33-0.7l1.73-4.36h6.63l1.91,4.4q0.29,0.66-.33.66h-1.2v0.09h8.22V90.45h-0.77a0.87,0.87,0,0,1-.54-0.11,0.81,0.81,0,0,1-.12-0.55V83.52h2.85a2.57,2.57,0,0,1,2,.71c1.21,1.27,1.09,3.86,2.35,5.41a2.61,2.61,0,0,0,2.15.89h1.37V90.45h-0.49c-1.64,0-2.06-2.41-2.38-3.62a4.33,4.33,0,0,0-1.34-2.36,4.66,4.66,0,0,0-2.67-1,5.26,5.26,0,0,0,3.41-1.29,3.84,3.84,0,0,0,1.13-2.85V78.2a3.4,3.4,0,0,1,.69-2.06,2.44,2.44,0,0,1,2-.89h1.8a0.87,0.87,0,0,1,.54.11,0.8,0.8,0,0,1,.12.55V89.76a0.8,0.8,0,0,1-.12.55,0.87,0.87,0,0,1-.54.11h-0.77v0.12h18.1V90.45h-0.77a0.5,0.5,0,0,1-.66-0.66V84.11l4.43-8.17a1.22,1.22,0,0,1,.45-0.51,1.59,1.59,0,0,1,.75-0.14h2.78a7.48,7.48,0,0,0-3.24,2,8.16,8.16,0,0,0,0,11.25,7.53,7.53,0,0,0,5.5,2.27,2.19,2.19,0,0,1,1.35.47,5.63,5.63,0,0,1,1.13,1.15l1,1.36a5.08,5.08,0,0,0,1.28,1.15,3,3,0,0,0,1.64.47,4,4,0,0,0,1.6-.37V94.95A1.43,1.43,0,0,1,223,95a1.6,1.6,0,0,1-1-.38,7.22,7.22,0,0,1-1-.94q-0.48-.56-1.07-1.15a5.94,5.94,0,0,0-1.56-1.12,7.86,7.86,0,0,0-2.39-.68,7.38,7.38,0,0,0,5.15-2.4,7.73,7.73,0,0,0,2.08-5.6h1v2.54a5.11,5.11,0,0,0,1.58,4.19,7.35,7.35,0,0,0,4.73,1.29,6.57,6.57,0,0,0,1.85-.34,6.62,6.62,0,0,1-1.9.26q-4.56,0-4.56-5V82.77h9.73v2.91A5.83,5.83,0,0,1,235.2,88,3.77,3.77,0,0,1,234,89.6a5.25,5.25,0,0,1-1.64.85,5.43,5.43,0,0,0,1.67-.84A3.87,3.87,0,0,0,235.26,88a5.85,5.85,0,0,0,.45-2.38V82.7h1.66v7.06a0.81,0.81,0,0,1-.12.55,0.87,0.87,0,0,1-.54.11h-0.77v0.09h11.77v-3.7h-0.09v0.55Zm-85.38-2,3.13-7.91,3.43,7.91h-6.56Zm12,4.44a0.81,0.81,0,0,1-.12.55,0.82,0.82,0,0,1-.5.11,1.22,1.22,0,0,1-.6-0.12,1.19,1.19,0,0,1-.36-0.54h0l-1.91-4.4h3.49v4.4Zm0-4.49h-3.53L170,83.53h4.3V85.3ZM179,83.45h-3V75.29h3q3.57,0,3.57,4.08T179,83.45Zm24,6.75a0.5,0.5,0,0,1-.66.25H192a0.87,0.87,0,0,1-.54-0.11,0.8,0.8,0,0,1-.12-0.55V75.94a0.8,0.8,0,0,1,.12-0.55,0.87,0.87,0,0,1,.54-0.11h1.8a2.44,2.44,0,0,1,2,.89,3.44,3.44,0,0,1,.69,2.18V78.9h0.09V75.28h0.68a1.24,1.24,0,0,1,.65.13,1.45,1.45,0,0,1,.43.53L203,84.62v5.17A0.5,0.5,0,0,1,203,90.2Zm6-14.19-4.36,8-4.33-8.13a0.62,0.62,0,0,1-.16-0.48,0.49,0.49,0,0,1,.49-0.16h8a0.47,0.47,0,0,1,.43.16A0.82,0.82,0,0,1,209.06,76ZM219.7,88.45a5.21,5.21,0,0,1-8.55,0,9,9,0,0,1-1.7-5.7h12A9,9,0,0,1,219.7,88.45Zm-10.25-5.79h0a8.85,8.85,0,0,1,1.7-5.35,5.21,5.21,0,0,1,8.55,0,8.82,8.82,0,0,1,1.7,5.36h-12Zm27.94,0h-1.66V75.94a0.8,0.8,0,0,1,.12-0.55,0.84,0.84,0,0,1,.51-0.11h0.4a0.83,0.83,0,0,1,.51.11,0.8,0.8,0,0,1,.12.55v6.71Z" transform="translate(-130 0)"/><polygon class="cls-1" points="120.3 0 120.24 0 120.25 0.01 79.54 75.18 79.61 75.18 120.3 0"/><polygon class="cls-1" points="79.6 75.2 79.61 75.18 79.54 75.18 79.53 75.2 79.6 75.2"/></svg>