<svg width="50" height="50" viewBox="0 0 50 50" fill="none" xmlns="http://www.w3.org/2000/svg">
<path fill-rule="evenodd" clip-rule="evenodd" d="M39.7661 36.7446V36.9396H30.2144V36.7446H32.4561C33.2359 36.7446 33.4308 36.3548 33.0409 35.4776L29.4347 27.193H16.9591L13.7427 35.3801C13.4503 36.2573 13.6452 36.7446 14.3275 36.7446H17.154V36.9396H10.2339V36.7446H11.7934C12.3782 36.7446 12.6706 36.6472 12.8655 36.5497C13.0604 36.4522 13.2554 36.0624 13.4503 35.4776L16.7641 27.193H0.389864C0.877193 33.1384 3.50877 38.499 7.50487 42.4951C11.9883 46.9786 18.1287 49.7076 24.9513 49.7076C31.7739 49.7076 37.9142 46.9786 42.3977 42.4951C43.9571 40.9357 45.2242 39.2788 46.2963 37.4269L46.4912 37.5244C45.4191 39.3762 44.0546 41.1306 42.4951 42.6901C38.0117 47.1735 31.7739 50 24.8538 50C17.9337 50 11.6959 47.1735 7.21248 42.6901C3.02144 38.499 0.487329 32.9435 0 27.0955H16.7641L24.4639 7.79727H24.6589L33.0409 27.0955H49.6101C49.7076 26.4133 49.7076 25.731 49.7076 25.0487C49.7076 18.2261 46.9786 12.0858 42.4951 7.60234C38.0117 3.11891 31.8713 0.389864 25.0487 0.389864C18.2261 0.389864 12.0858 3.11891 7.60234 7.60234C6.04288 9.16179 4.77583 10.8187 3.7037 12.6706L3.50877 12.5731C4.5809 10.7212 5.94542 8.96686 7.50487 7.40741C11.8908 2.82651 18.1287 0 24.9513 0C31.8713 0 38.1092 2.82651 42.6901 7.30994C47.1735 11.7934 50 18.0312 50 24.9513C50 25.6335 50 26.4133 49.9025 27.0955H33.1384L36.7446 35.3801C36.9396 35.8674 37.232 36.2573 37.4269 36.3548C37.6218 36.5497 38.0117 36.5497 38.5965 36.5497H39.7661V36.7446ZM29.4347 26.9981L22.9045 12.0858L16.9591 26.9981H29.4347Z" fill="white"/>
</svg>
