<svg width="149" height="34" viewBox="0 0 149 34" fill="none" xmlns="http://www.w3.org/2000/svg">
<path fill-rule="evenodd" clip-rule="evenodd" d="M23.4877 24.7273L20.3071 17.4067H26.0974V24.7273C26.0974 25.2153 26.0159 25.5407 25.9343 25.622C25.7712 25.7034 25.5265 25.7847 25.1188 25.7847C24.7926 25.7847 24.3848 25.7847 24.1401 25.622C23.8955 25.4593 23.6508 25.134 23.4877 24.7273ZM73.1544 25.7847C73.6437 25.7847 73.9699 25.7034 74.0515 25.622C74.2146 25.4593 74.2146 25.2153 74.2146 24.7273V16.1053L66.3853 1.62679C66.1407 1.2201 65.896 0.894737 65.6513 0.732057C65.4067 0.569378 65.0805 0.488038 64.5911 0.488038H63.4494V6.50718H63.2863V5.61244C63.2863 4.14833 62.8785 2.92823 62.1445 1.95215C61.4105 0.976077 60.2687 0.488038 58.7192 0.488038H55.7017C55.2124 0.488038 54.9677 0.569378 54.8046 0.650718C54.6415 0.813397 54.5599 1.13876 54.5599 1.62679V24.7273C54.5599 25.2153 54.6415 25.5407 54.723 25.622C54.8862 25.7034 55.1308 25.7847 55.6201 25.7847C61.4921 25.7847 67.364 25.7847 73.1544 25.7847ZM49.2589 25.9474C59.3717 25.9474 69.4028 25.9474 79.5156 25.9474V25.7847H78.2923C77.803 25.7847 77.4767 25.7034 77.3952 25.622C77.3136 25.4593 77.2321 25.2153 77.2321 24.7273V15.2105L84.572 1.62679C84.8166 1.2201 85.0613 0.894737 85.306 0.732057C85.5506 0.569378 85.9584 0.488038 86.5293 0.488038C88.0788 0.488038 89.6283 0.488038 91.1779 0.488038C89.139 1.05742 87.3448 2.19617 85.7953 3.74163C80.7389 8.78469 80.7389 17.488 85.7953 22.5311C88.3235 25.0526 91.341 26.2727 95.0109 26.3541C95.8265 26.3541 96.5605 26.5981 97.2945 27.1675C98.0285 27.6555 98.5993 28.3062 99.1702 29.1196L100.883 31.3971C101.454 32.1292 102.188 32.7799 103.003 33.3493C103.819 33.8373 104.716 34.1627 105.776 34.1627C106.592 34.1627 107.489 33.9187 108.467 33.512V33.3493C108.141 33.4306 107.897 33.512 107.733 33.512C107.163 33.512 106.592 33.2679 106.021 32.8612C105.45 32.4545 104.961 31.8852 104.39 31.3158C103.819 30.6651 103.248 30.0144 102.596 29.3636C101.943 28.7129 101.046 28.0622 99.8227 27.5742C98.6809 27.0048 97.2945 26.5981 95.8265 26.4354C99.2518 26.2727 102.106 24.89 104.471 22.4498C106.918 19.8469 107.978 16.6746 107.978 13.0957H109.609V17.3254C109.609 20.5789 110.506 22.8565 112.219 24.3206C114.013 25.7847 116.623 26.5167 120.13 26.5167C121.271 26.5167 122.332 26.3541 123.392 26.0287C124.371 25.7034 125.349 25.2153 126.165 24.6459C126.98 23.9952 127.714 23.1005 128.204 21.9617C128.693 20.823 128.938 19.5215 128.938 17.9761V13.0957H131.71V24.89C131.71 25.378 131.629 25.7034 131.547 25.7847C131.384 25.866 131.14 25.9474 130.65 25.9474H129.345V26.11H149V19.9282H148.837V20.823C148.837 22.2057 148.429 23.4258 147.695 24.4019C146.961 25.378 145.819 25.9474 144.27 25.9474H135.707C135.217 25.9474 134.973 25.866 134.81 25.7847C134.646 25.622 134.646 25.378 134.646 24.89V12.933H140.029C141.497 12.933 142.557 13.2584 143.21 13.9091C143.862 14.5598 144.27 15.4545 144.27 16.4306V17.488H144.433V8.21531H144.27V9.19139C144.27 10.2488 143.944 11.1435 143.21 11.7943C142.557 12.445 141.497 12.7703 140.029 12.7703H134.646V1.62679C134.646 1.13876 134.728 0.813397 134.81 0.732057C134.973 0.569378 135.217 0.569378 135.707 0.569378H143.291C144.841 0.569378 145.982 1.05742 146.716 2.03349C147.45 3.00957 147.858 4.22966 147.858 5.69378V6.50718H148.021V0.406699H126.165V0.569378H127.633C128.122 0.569378 128.367 0.650718 128.53 0.732057C128.693 0.813397 128.693 1.13876 128.693 1.62679V12.7703H112.382V1.62679C112.382 1.13876 112.464 0.813397 112.545 0.732057C112.708 0.569378 112.953 0.569378 113.442 0.569378H114.747V0.406699H107.081V0.569378H108.386C108.875 0.569378 109.12 0.650718 109.283 0.732057C109.446 0.813397 109.446 1.13876 109.446 1.62679V12.7703H107.815C107.733 9.19139 106.51 6.18182 104.063 3.74163C101.535 1.2201 98.5178 0 94.8478 0C93.7061 0 92.6459 0.162679 91.6672 0.406699C82.2069 0.406699 72.7466 0.406699 63.2863 0.406699H42.8161V5.77512C42.5714 4.39234 41.919 3.25359 40.8588 2.35885C39.4724 1.05742 37.2704 0.406699 34.3344 0.406699H23.7323V0.569378H25.0372C25.5265 0.569378 25.7712 0.650718 25.9343 0.732057C26.0974 0.813397 26.0974 1.13876 26.0974 1.62679V14.1531H18.8391L12.8041 0.162679H12.6409L2.85441 24.7273C2.60974 25.2153 2.44663 25.5407 2.28352 25.622C2.12042 25.7034 1.7942 25.7847 1.30487 25.7847H0V25.9474H6.11658V25.7847H3.66995C3.01751 25.7847 2.85441 25.378 3.09907 24.6459L5.95348 17.4067H17.0449L20.2255 24.7273C20.5517 25.4593 20.3886 25.866 19.6546 25.866H17.6158V26.0287C22.1828 26.0287 26.7499 26.0287 31.3985 26.0287V25.866H30.1751C29.6858 25.866 29.4412 25.7847 29.2781 25.7034C29.1149 25.5407 29.1149 25.2967 29.1149 24.8086V14.2345H33.8451C35.2315 14.2345 36.3733 14.6411 37.1073 15.4545C39.1461 17.5694 38.9015 21.8804 41.0219 24.4833C41.8374 25.4593 43.0608 25.9474 44.6103 25.9474H46.8938V25.7847H46.0783C43.3054 25.7847 42.653 21.799 42.0821 19.7656C41.6743 18.0574 40.9403 16.756 39.8801 15.8612C38.8199 14.9665 37.3519 14.3971 35.3946 14.2345C37.9228 14.0718 39.7986 13.3397 41.1035 12.0383C42.3268 10.8182 42.9792 9.19139 42.9792 7.32057V5.44976C42.9792 4.06699 43.387 2.92823 44.121 2.03349C44.8549 1.05742 45.9967 0.569378 47.5462 0.569378H50.5638C51.0531 0.569378 51.2978 0.650718 51.4609 0.732057C51.624 0.813397 51.7055 1.13876 51.7055 1.62679V24.7273C51.7055 25.2153 51.624 25.5407 51.5424 25.622C51.3793 25.7034 51.1346 25.7847 50.6453 25.7847H49.3405V25.9474H49.2589ZM70.3815 0.488038C74.867 0.488038 79.3525 0.488038 83.838 0.488038C84.0827 0.488038 84.4904 0.488038 84.572 0.732057C84.6535 0.894737 84.572 1.2201 84.4089 1.62679L77.1505 15.0478L69.8106 1.54545C69.5659 1.2201 69.4844 0.894737 69.566 0.732057C69.6475 0.569378 69.8922 0.488038 70.3815 0.488038ZM84.9797 12.7703C85.0613 9.19139 85.9584 6.26316 87.8342 3.82297C89.7099 1.30144 92.075 0.0813397 94.9294 0.0813397C97.7838 0.0813397 100.23 1.30144 102.106 3.82297C103.9 6.18182 104.879 9.19139 104.961 12.7703H84.9797ZM128.938 12.7703V1.62679C128.938 1.13876 129.019 0.813397 129.101 0.732057C129.264 0.650718 129.508 0.569378 129.916 0.569378C130.161 0.569378 130.324 0.569378 130.569 0.569378C130.976 0.569378 131.303 0.650718 131.384 0.732057C131.547 0.813397 131.547 1.13876 131.547 1.62679V12.7703H128.938ZM128.774 12.933V17.8134C128.774 19.3589 128.53 20.6603 128.04 21.7177C127.551 22.8565 126.899 23.6699 126.083 24.3206C125.268 24.9713 124.289 25.378 123.31 25.7034C122.332 26.0287 121.271 26.11 120.13 26.11C115.073 26.11 112.545 23.3445 112.545 17.8134V12.933H128.774ZM104.961 12.933C104.961 16.3493 104.227 19.6842 102.106 22.4498C100.23 24.89 97.8653 26.1914 94.9294 26.1914C92.075 26.1914 89.7099 24.9713 87.8342 22.4498C85.7137 19.6842 84.9797 16.4306 84.9797 12.933H104.961ZM26.0974 14.2345V17.1627H20.2255L18.9206 14.2345H26.0974ZM34.0082 14.0718H29.0334V0.488038H34.0082C38.0044 0.488038 39.9617 2.76555 39.9617 7.32057C40.0432 11.8756 38.0044 14.0718 34.0082 14.0718ZM11.2545 4.06699L16.9633 17.244H6.03503L11.2545 4.06699Z" fill="#224651"/>
</svg>
