<svg xmlns="http://www.w3.org/2000/svg" xmlns:xlink="http://www.w3.org/1999/xlink" viewBox="0 0 247.97 161.35"><defs><style>.cls-1{isolation:isolate;}.cls-2{fill:url(#linear-gradient);}.cls-3{fill:#d6a584;mix-blend-mode:screen;}.cls-4{fill:url(#linear-gradient-2);}.cls-5{fill:url(#linear-gradient-3);}</style><linearGradient id="linear-gradient" x1="-20" y1="36.15" x2="242.98" y2="36.15" gradientUnits="userSpaceOnUse"><stop offset="0" stop-color="#0d5972"/><stop offset="1" stop-color="#1a2e3d"/></linearGradient><linearGradient id="linear-gradient-2" x1="-5" y1="78.97" x2="242.98" y2="78.97" xlink:href="#linear-gradient"/><linearGradient id="linear-gradient-3" x1="-5" y1="130.25" x2="242.98" y2="130.25" xlink:href="#linear-gradient"/></defs><title>special_bg</title><g class="cls-1"><g id="Layer_1" data-name="Layer 1"><path class="cls-2" d="M12.73-1.49C63,17.76,76.9,62.66,121.06,71.77c58,12,82.25-33.09,121.92-44.37V-1.49H12.73Z" transform="translate(5 1.71)"/><path class="cls-3" d="M12.73-1.49C63,17.76,76.9,62.66,121.06,71.77c58,12,82.25-33.09,121.92-44.37V-1.49H12.73Z" transform="translate(5 1.71)"/><path class="cls-4" d="M243-1.71H-5V134.94c27.59-11.11,46.82-41.25,89.07-32.52,34.53,7.13,45.28,42.36,84.86,57.22h74V27.4c-39.67,11.28-63.89,56.35-121.92,44.37C76.9,62.66,63,17.76,12.73-1.49H243V-1.71Z" transform="translate(5 1.71)"/><path class="cls-5" d="M-5,134.94v24.7H168.94c-39.57-14.87-50.33-50.1-84.86-57.22C41.82,93.69,22.59,123.84-5,134.94Z" transform="translate(5 1.71)"/><path class="cls-3" d="M-5,134.94v24.7H168.94c-39.57-14.87-50.33-50.1-84.86-57.22C41.82,93.69,22.59,123.84-5,134.94Z" transform="translate(5 1.71)"/></g></g></svg>